<?xml version="1.0" encoding="UTF-8" standalone="no"?>
<!-- Created with Inkscape (http://www.inkscape.org/) -->

<svg
   width="69.027901mm"
   height="79.374992mm"
   viewBox="0 0 69.027901 79.374992"
   version="1.1"
   id="svg1"
   xml:space="preserve"
   xmlns="http://www.w3.org/2000/svg"
   xmlns:svg="http://www.w3.org/2000/svg"><defs
     id="defs1" /><g
     id="layer1"
     transform="translate(-70.486045,-108.8125)"><path
       id="path2"
       style="fill:#00cc00;fill-opacity:1;stroke:none;stroke-width:0.264583"
       d="m 105.36917,108.8125 c -0.0228,0.002 -0.0475,0.0114 -0.0706,0.0256 -1.17414,0.69134 -2.01886,2.07652 -1.3105,3.89176 0.0586,0.14857 -0.11726,0.28784 -0.24278,0.19126 -0.58577,-0.44298 -0.64742,-1.07961 -0.59567,-1.53551 0.0199,-0.16764 -0.19981,-0.24477 -0.29419,-0.10588 -0.22001,0.33588 -0.44269,0.87822 -0.44269,1.69584 0.12324,1.80852 1.65323,2.36475 2.20326,2.43565 0.78603,0.10047 1.63564,-0.0455 2.2474,-0.6045 0.6727,-0.62354 0.91966,-1.61848 0.55743,-2.48421 h -10e-4 c -0.50762,-1.31798 -2.31486,-1.38967 -1.87823,-3.30487 0.0256,-0.10673 -0.0552,-0.19525 -0.14857,-0.20151 -0.009,-5.4e-4 -0.0142,-8e-4 -0.0228,0 z m -1.77526,7.32311 c -0.65453,0 -1.18105,0.52655 -1.18105,1.18108 v 9.87205 0.32503 3.00634 c 0,0.64967 0.52259,1.17223 1.17223,1.17223 h 2.82982 c 0.64964,0 1.17223,-0.52256 1.17223,-1.17223 v -3.00634 -0.67801 -9.51907 c 0,-0.65453 -0.52652,-1.18108 -1.18105,-1.18108 z m -2.45036,7.56436 c -9.30918,0.92072 -16.0177,5.00374 -16.01707,9.74852 v 6.10533 c -4.05943,2.42685 -6.27447,5.57408 -6.27447,8.88954 v 8.58656 c -5.39787,3.38873 -8.36596,7.75116 -8.36596,12.33124 0,10.37479 15.47903,18.82634 34.51397,18.82634 19.0349,0 34.51393,-8.45155 34.51393,-18.82634 0,-4.58008 -2.9713,-8.94251 -8.36596,-12.33124 v -8.58656 c 0,-3.31518 -2.21797,-6.46246 -6.27444,-8.88954 v -6.10533 c 6e-4,-4.74478 -6.70791,-8.8278 -16.0171,-9.74852 v 2.47243 1.66348 3.01075 c 0,1.17223 -0.94428,2.11502 -2.11648,2.11502 h -3.47994 c -1.17223,0 -2.11648,-0.94279 -2.11648,-2.11502 v -2.99897 c -3e-5,-0.003 0,-0.009 0,-0.0114 V 126.3228 Z M 85.8707,135.93122 c 0,0 0.51476,1.01105 1.73555,2.09146 1.34029,1.18621 3.06445,2.08406 5.28166,2.97253 3.31962,1.31106 7.53066,2.09883 12.11211,2.09883 4.58044,0 8.79277,-0.78677 12.11207,-2.09738 2.21709,-0.88815 3.93966,-1.78672 5.28019,-2.9725 1.22101,-1.08001 1.73702,-2.09001 1.73702,-2.09001 0,0 -0.38116,1.06897 -1.54141,2.29152 -1.24711,1.31411 -3.02281,2.42703 -5.26694,3.30049 -3.3963,1.34098 -7.67989,2.13709 -12.32093,2.13709 -4.64205,0 -8.9243,-0.79705 -12.32096,-2.13857 -2.24428,-0.87375 -4.02155,-1.98592 -5.26843,-3.30049 -1.15999,-1.22295 -1.53993,-2.29297 -1.53993,-2.29297 z m -0.74422,6.11118 v 6.40096 c 0,5.28311 8.73363,9.41315 19.87354,9.41315 11.1399,0 19.87353,-4.13004 19.87353,-9.41315 v -6.40096 c 2.70925,1.8944 4.18295,4.13004 4.18295,6.40096 0,1.91502 -1.05596,3.82698 -3.05338,5.53318 -0.72069,0.61773 -1.12957,1.47372 -1.12957,2.37386 v 9.87207 c 0,0.30298 -0.13519,0.59713 -0.36477,0.79423 -0.24107,0.20891 -0.54276,0.29472 -0.85749,0.24107 -0.49126,-0.0822 -0.86778,-0.58543 -0.86778,-1.15017 v -5.29197 c 0,-1.00305 -0.48237,-1.95621 -1.30605,-2.54155 -0.81478,-0.58538 -1.82091,-0.74129 -2.77102,-0.41771 -0.34419,0.1147 -0.70156,0.2294 -1.06928,0.33534 -1.27666,0.3883 -2.17679,1.61202 -2.17679,2.97104 v 2.97102 c 0,0.30298 -0.1352,0.59713 -0.36474,0.79423 -0.24107,0.20891 -0.55159,0.29472 -0.8575,0.24107 -0.49125,-0.0822 -0.86777,-0.5854 -0.86777,-1.15017 v -1.22369 c 0,-0.87955 -0.37652,-1.71494 -1.02369,-2.31212 -0.64717,-0.58538 -1.52664,-0.86772 -2.40622,-0.78541 -1.62079,0.16764 -3.27411,0.25018 -4.95663,0.25018 -0.82665,0 -1.61194,0.31476 -2.19737,0.90013 -0.59713,0.57656 -0.92074,1.35903 -0.92074,2.1974 v 7.36285 c 0,0.30298 -0.13548,0.59713 -0.36476,0.79423 -0.24108,0.20891 -0.55302,0.29472 -0.85895,0.24107 -0.49123,-0.0822 -0.86778,-0.58543 -0.86778,-1.15017 v -7.9203 c 0,-1.51785 -1.08838,-2.81221 -2.57392,-3.06515 -1.37077,-0.2294 -2.69744,-0.51188 -3.96527,-0.86777 -0.94132,-0.25018 -1.91506,-0.0618 -2.68865,0.53244 -0.78543,0.59713 -1.23547,1.50608 -1.23547,2.50034 v 0.5648 c 0,0.30297 -0.13519,0.59718 -0.36477,0.79425 -0.24107,0.20891 -0.54421,0.29464 -0.85895,0.24108 -0.49125,-0.0823 -0.86777,-0.58544 -0.86777,-1.15018 v -4.01528 c 0,-1.06783 -0.53243,-2.0503 -1.41196,-2.6151 -2.21798,-1.41199 -4.86248,-3.7447 -4.86248,-6.85102 0,-2.27043 1.47336,-4.50534 4.1815,-6.39947 z m -6.27447,17.49672 v 0.29856 0.2986 10.06911 c 0.83544,7.19521 12.04639,12.75483 26.14505,12.75483 14.66422,0 26.148,-5.97123 26.148,-13.5961 v -9.82207 c 4.0594,2.85632 6.27444,6.29505 6.27444,9.82207 0,9.22488 -14.54872,16.73482 -32.42244,16.73482 l 0.003,-0.003 c -17.87295,0 -32.42247,-7.50971 -32.42247,-16.73485 0,-3.52406 2.218,-6.96569 6.27447,-9.82203 z" /></g></svg>
