<?xml version="1.0" encoding="UTF-8" standalone="no"?>
<!-- Created with Inkscape (http://www.inkscape.org/) -->

<svg
   width="132.29166mm"
   height="132.29167mm"
   viewBox="0 0 132.29166 132.29167"
   version="1.1"
   id="svg1"
   xml:space="preserve"
   xmlns="http://www.w3.org/2000/svg"
   xmlns:svg="http://www.w3.org/2000/svg"><defs
     id="defs1"><style
       type="text/css"
       id="style1">
   
    .fil0 {fill:black;fill-rule:nonzero}
   
  </style></defs><g
     id="layer1"
     transform="translate(426.20084,-209.00121)"><path
       id="path1"
       style="clip-rule:evenodd;fill:#00cc00;fill-opacity:1;stroke:none;stroke-width:0.264583;image-rendering:optimizeQuality;shape-rendering:geometricPrecision;text-rendering:geometricPrecision"
       class="fil0"
       d="m -360.05502,209.00119 c -36.531,0 -66.14584,29.61484 -66.14584,66.14584 0,36.531 29.61484,66.14583 66.14584,66.14583 36.531,0 66.14583,-29.61483 66.14583,-66.14583 0,-36.531 -29.61483,-66.14584 -66.14583,-66.14584 z m 0,6.84765 c 32.75123,0 59.29819,26.54695 59.29819,59.29819 0,32.75123 -26.54696,59.29819 -59.29819,59.29819 -32.75124,0 -59.29871,-26.54696 -59.29871,-59.29819 0,-32.75124 26.54747,-59.29819 59.29871,-59.29819 z m 3.71915,5.95416 v 9.41596 h -0.0145 c -0.0303,2.02792 -1.68347,3.66266 -3.71863,3.66282 -2.05437,1.1e-4 -3.71979,-1.6653 -3.71967,-3.71967 -10e-6,-0.005 -10e-6,-0.01 0,-0.015 v -9.3431 c -26.56061,1.83279 -47.7862,23.06082 -49.61041,49.62333 h 0.0145 9.40149 c 2.03461,0.0226 3.67713,1.67914 3.67729,3.71915 1.2e-4,2.0402 -1.64247,3.69704 -3.67729,3.71967 v 5.2e-4 h -9.41596 c 1.82421,26.5625 23.0498,47.79053 49.61041,49.62332 v -9.35808 c -1.2e-4,-2.05417 1.66499,-3.7195 3.71915,-3.71967 2.03537,-1.2e-4 3.68886,1.63469 3.71915,3.66282 h 0.0145 v 9.41597 c 26.56723,-1.82622 47.79982,-23.05713 49.62436,-49.62436 h -9.41544 v -5.2e-4 c -2.03462,-0.0226 -3.67713,-1.67915 -3.6773,-3.71915 -1.2e-4,-2.04022 1.64247,-3.69706 3.6773,-3.71967 7.4e-4,-1e-5 10e-4,0 0.002,0 h 9.39943 0.0139 c -1.82454,-26.56723 -23.05713,-47.79815 -49.62436,-49.62436 z m 17.22607,18.082 c 1.22605,0.9399 1.93388,2.63013 1.54384,4.73572 l -6.84247,37.00188 c -0.28315,1.53134 -1.03032,2.82825 -2.21485,3.83853 l -28.62461,24.42589 c -3.6139,3.08949 -8.16291,0.46242 -7.29672,-4.21369 l 6.84248,-37.00188 c 0.28314,-1.53134 1.03032,-2.82823 2.21485,-3.83852 l 28.62513,-24.4259 c 2.03588,-1.74045 4.30694,-1.63008 5.75235,-0.52203 z m -20.78606,29.34818 c -2.09736,-0.0542 -4.15867,1.01144 -5.28288,2.95692 -1.63186,2.82812 -0.6634,6.44491 2.16473,8.08013 2.82979,1.63187 6.44698,0.66352 8.08219,-2.16628 1.63187,-2.82811 0.66351,-6.44542 -2.16628,-8.08064 -0.88378,-0.50996 -1.84441,-0.76549 -2.79776,-0.79013 z" /></g></svg>
