<?xml version="1.0" encoding="UTF-8" standalone="no"?>
<svg
   version="1.1"
   x="0px"
   y="0px"
   viewBox="0 0 237.33493 298.58267"
   xml:space="preserve"
   id="svg2"
   sodipodi:docname="noun-download-711090.svg"
   width="237.33493"
   height="298.58267"
   xmlns:inkscape="http://www.inkscape.org/namespaces/inkscape"
   xmlns:sodipodi="http://sodipodi.sourceforge.net/DTD/sodipodi-0.dtd"
   xmlns="http://www.w3.org/2000/svg"
   xmlns:svg="http://www.w3.org/2000/svg"><defs
     id="defs2" /><sodipodi:namedview
     id="namedview2"
     pagecolor="#505050"
     bordercolor="#eeeeee"
     borderopacity="1"
     inkscape:showpageshadow="0"
     inkscape:pageopacity="0"
     inkscape:pagecheckerboard="0"
     inkscape:deskcolor="#505050"
     showguides="true"><inkscape:page
       x="0"
       y="0"
       width="237.33493"
       height="298.58267"
       id="page2"
       margin="0"
       bleed="0" /></sodipodi:namedview><style
     type="text/css"
     id="style1">
	.st0{fill:none;stroke:#000000;stroke-width:3;stroke-miterlimit:10;}
	.st1{fill:none;stroke:#000000;stroke-miterlimit:10;}
</style><g
     inkscape:groupmode="layer"
     id="layer1"
     inkscape:label="Layer 1"
     transform="translate(-0.38764903,1.4142153)"><path
       id="rect5"
       style="fill:#00cc00;fill-opacity:1;stroke:none;stroke-width:9.44881;stroke-linecap:round"
       d="M 39.04878,-1.4142153 A 38.66113,38.66113 0 0 0 0.38764903,37.246915 V 258.50733 A 38.66113,38.66113 0 0 0 39.04878,297.16846 h 106.06204 a 42.147342,42.147342 0 0 0 29.95844,-12.49328 l 50.28714,-50.80303 a 42.760428,42.760428 0 0 0 12.36618,-30.08553 V 37.246915 A 38.66113,38.66113 0 0 0 199.06145,-1.4142153 Z m 73.22514,48.8292233 c 10.88736,0 14.7736,10.496057 14.7736,20.216535 -0.38953,11.274292 -2.7215,21.778391 -6.22047,32.276173 2.33293,3.887704 8.94178,15.161264 18.66142,24.493084 6.60931,-0.77739 34.2183,-5.05489 44.32835,5.44294 2.72073,3.11026 3.88727,7.38773 1.94388,11.27459 -1.16604,3.49984 -4.66513,7.38682 -13.99606,7.38682 -6.99885,0 -20.22358,-1.94297 -35.38641,-15.16241 -12.83074,2.33292 -25.65889,6.22113 -33.82382,8.94194 -9.720441,16.72005 -23.714852,36.54526 -38.100376,36.54526 -3.499846,0 -6.997822,-1.16609 -9.719473,-3.49902 -2.721352,-2.72073 -3.887665,-6.22134 -3.110236,-9.71947 1.944231,-11.66475 25.658811,-22.55042 36.934019,-27.21458 10.886474,-20.607 14.773916,-32.26833 19.050226,-44.320855 -7.38748,-16.71845 -9.330325,-33.052415 -4.66536,-41.218113 1.94427,-3.110346 5.44302,-5.442894 9.33071,-5.442894 z m 0,6.998012 c -1.16603,0 -2.33289,0.777807 -3.11024,1.943892 -1.94423,3.498961 -3.11138,14.391108 2.72144,29.943512 2.72077,-7.776247 4.27643,-15.946116 4.66535,-24.111814 0,-3.499847 -0.77758,-7.77559 -4.27655,-7.77559 z m 5.05413,55.60295 c -1.55474,4.66593 -5.83159,15.55107 -8.94194,21.77165 9.33097,-3.11111 21.38288,-5.44236 21.38288,-5.8317 -3.11112,-3.11027 -8.94198,-10.10886 -12.44094,-15.93995 z m 44.76198,19.12498 c -6.85274,-0.29169 -14.13778,0.50786 -17.92874,1.09155 5.83189,4.66589 12.44029,8.1649 19.82776,10.10829 6.22146,1.55474 9.7194,-1.1662 10.10828,-3.88782 0.77824,-3.88846 -2.33261,-5.83185 -5.44293,-6.60923 -2.04142,-0.38886 -4.28014,-0.60556 -6.56437,-0.70279 z M 85.448108,147.3388 c -15.552404,6.99797 -25.65889,14.38453 -26.825771,19.82777 -0.388695,1.55477 -5.38e-4,2.72077 1.166343,3.499 0.77739,0.38851 1.555268,0.77758 2.332657,0.77758 5.054547,0 14.384489,-9.33017 23.326771,-24.10435 z m -33.681727,74.03262 a 25.457571,25.457571 0 0 1 25.457576,25.45757 25.457571,25.457571 0 0 1 -25.457576,25.45758 25.457571,25.457571 0 0 1 -25.457616,-25.45758 25.457571,25.457571 0 0 1 25.457616,-25.45757 z m 122.413179,0 h 38.66113 l -50.14507,50.91515 v -39.43121 c 0,-6.50757 4.97637,-11.48394 11.48394,-11.48394 z M 49.314052,233.34879 v 17.59229 l -5.854131,-5.86163 -3.461609,3.46165 11.768069,11.76805 11.768019,-11.76805 -3.469113,-3.46165 -5.861596,5.86163 v -17.59229 z" /></g><style
     type="text/css"
     id="style1-4">
	.st0{fill:none;stroke:#000000;stroke-width:2;stroke-linecap:round;stroke-miterlimit:10;}
</style></svg>
