<?xml version="1.0" encoding="UTF-8" standalone="no"?>
<!-- Created with Inkscape (http://www.inkscape.org/) -->

<svg
   width="132.29166mm"
   height="91.281235mm"
   viewBox="0 0 132.29166 91.281235"
   version="1.1"
   id="svg1"
   xml:space="preserve"
   xmlns="http://www.w3.org/2000/svg"
   xmlns:svg="http://www.w3.org/2000/svg"><defs
     id="defs1"><style
       type="text/css"
       id="style1">
   
    .fil0 {fill:black;fill-rule:nonzero}
   
  </style></defs><g
     id="layer1"
     transform="translate(801.50072,-242.11825)"><path
       id="path1-4"
       style="fill:#00cc00;fill-opacity:1;stroke-width:0.264583"
       d="m -735.25565,242.11825 c -11.30874,0 -20.47474,9.20295 -20.47474,20.55733 0,11.35434 9.166,20.55734 20.47474,20.55734 11.30875,0 20.47474,-9.20343 20.47474,-20.55734 0,-11.35438 -9.16599,-20.55733 -20.47474,-20.55733 z m 41.56188,15.95847 c -7.82407,0 -14.17181,6.36776 -14.17181,14.22896 0,7.86127 6.34774,14.23462 14.17181,14.23462 7.82966,0 14.1774,-6.37319 14.1774,-14.23462 0,-7.8612 -6.3476,-14.22896 -14.1774,-14.22896 z m -84.08011,0.003 v 0.003 c -7.17915,0.33251 -13.08299,6.07509 -13.48671,13.43445 -0.43068,7.845 5.55356,14.56037 13.36647,14.99828 7.81906,0.43247 14.50738,-5.576 14.938,-13.42602 0.43626,-7.85061 -5.55356,-14.56032 -13.36646,-14.99823 -0.48869,-0.0271 -0.97269,-0.0326 -1.4513,-0.0109 z m 42.51823,30.32501 c -19.47428,0 -35.2226,10.06246 -35.2226,29.4687 v 6.18233 c 0,5.17727 4.14971,9.34373 9.3062,9.34373 h 51.54199 c 5.15648,0 9.30618,-4.16646 9.30618,-9.34373 v -6.03634 c 0.2908,-19.55283 -15.45892,-29.61469 -34.93177,-29.61469 z m -41.76042,1.86984 c -13.4559,0 -24.48468,6.90086 -24.48468,20.55734 v 4.31249 c 0,3.59376 2.86344,6.46877 6.44275,6.46877 h 18.75779 v -3.59375 c 0,-10.49489 3.86456,-19.25738 10.5925,-25.72615 -3.2941,-1.29708 -7.15866,-2.01588 -11.30836,-2.01588 z m 83.3223,0 c -4.1497,0 -8.01993,0.71885 -11.45378,2.01029 6.72795,6.46871 10.59251,15.24098 10.59251,25.72896 v 3.59369 h 0.86127 l 18.04193,0.005 c 3.57931,0 6.44275,-2.87501 6.44275,-6.46876 v -4.31249 c 0,-13.51017 -10.88275,-20.55734 -24.48468,-20.55734 z" /></g></svg>
