<?xml version="1.0" encoding="UTF-8" standalone="no"?>
<!-- Created with Inkscape (http://www.inkscape.org/) -->

<svg
   width="132.29167mm"
   height="132.29167mm"
   viewBox="0 0 132.29167 132.29167"
   version="1.1"
   id="svg1"
   xmlns:inkscape="http://www.inkscape.org/namespaces/inkscape"
   xmlns:sodipodi="http://sodipodi.sourceforge.net/DTD/sodipodi-0.dtd"
   xmlns="http://www.w3.org/2000/svg"
   xmlns:svg="http://www.w3.org/2000/svg">
  <sodipodi:namedview
     id="namedview1"
     pagecolor="#505050"
     bordercolor="#eeeeee"
     borderopacity="1"
     inkscape:showpageshadow="0"
     inkscape:pageopacity="0"
     inkscape:pagecheckerboard="0"
     inkscape:deskcolor="#505050"
     inkscape:document-units="mm">
    <inkscape:page
       x="0"
       y="0"
       width="132.29167"
       height="132.29167"
       id="page2"
       margin="0"
       bleed="0" />
  </sodipodi:namedview>
  <defs
     id="defs1" />
  <g
     inkscape:label="Camada 1"
     inkscape:groupmode="layer"
     id="layer1">
    <path
       id="path59-6-3"
       style="font-weight:bold;font-size:35.2777px;line-height:0;font-family:'LEMON MILK';-inkscape-font-specification:'LEMON MILK Bold';text-align:center;letter-spacing:0px;text-orientation:upright;text-anchor:middle;fill:#f7f7f7;fill-opacity:1;stroke:none;stroke-width:0.460316;stroke-miterlimit:2.5"
       inkscape:label="Monocromático"
       d="m 68.905335,0 -8.694173,0.16000002 0.247273,13.42091098 8.694172,-0.160001 -0.06363,-3.338908 -5.174812,0.09455 -0.03636,-1.9232731 4.259905,-0.081819 -0.05455,-2.9725457 -4.259814,0.081818 -0.03636,-1.8733641 5.175176,-0.095454 z m 8.190991,0.9649092 c -2.155634,-0.0545454 -4.09645,1.132182 -4.472541,3.1300005 -0.373635,1.9887275 0.850909,3.3549096 2.382907,4.3895461 1.184181,0.816364 2.421088,1.6681822 2.293179,2.3473632 -0.100908,0.540001 -0.879998,0.673637 -1.624361,0.532727 -1.103909,-0.208181 -2.033635,-0.891818 -2.428998,-1.8053626 L 70.73706,11.238457 c 0.388182,1.581727 2.178725,2.910636 4.345723,3.319181 2.64136,0.498182 5.274267,-0.623636 5.747176,-3.136454 C 81.197231,9.4736382 80.06905,7.9559103 78.171052,6.7000009 76.860599,5.8345462 75.965237,5.4621826 76.079236,4.856728 c 0.09091,-0.45 0.669091,-0.7209092 1.388817,-0.5854546 0.62909,0.1190909 1.586453,0.6127273 1.84818,1.3824547 L 81.702867,4.0867279 C 81.432867,2.6885458 80.041232,1.4431821 78.029598,1.0640911 77.716871,1.0004541 77.404145,0.9731819 77.096326,0.9659093 Z M 51.555262,1.781273 C 51.062536,1.763091 50.546391,1.826728 50.018937,1.9549093 L 45.07167,3.1647276 48.272667,16.200457 51.73208,15.354092 50.3493,9.691729 55.216077,14.502184 59.265981,13.511547 54.495896,9.1320014 C 55.630894,8.2374557 56.276985,6.6390918 55.879985,5.0132735 55.41544,3.1137277 53.693714,1.8278184 51.555262,1.781273 Z m 36.591324,2.2754549 v 3.637e-4 a 0.84259082,0.84318394 0 0 0 -0.241817,1.653091 c -0.01819,0 0.09091,0.018182 0.654544,0.2109091 0.589091,0.2009092 1.556726,0.5518183 2.812815,1.0851821 0.515458,0.2190909 1.117822,0.4845454 1.791996,0.8009092 3.488999,1.6378186 7.802366,4.091818 12.335716,7.592091 3.56009,2.748728 7.38372,6.307821 10.95026,10.620276 0.96682,1.169181 2.06191,2.566727 3.21118,4.194999 2.56472,3.634092 4.95563,7.791094 6.98564,12.569548 2.01372,4.740636 3.1699,8.927548 3.81044,11.600092 -0.54091,-2.693273 -1.51382,-6.933001 -3.322,-11.795002 -1.82108,-4.896183 -4.04208,-9.233546 -6.48663,-13.040728 -1.09617,-1.707091 -2.15517,-3.179455 -3.10172,-4.406091 C 114.00393,20.550184 110.21684,16.971367 106.5362,14.069365 101.94448,10.449183 97.446854,7.9324557 93.878855,6.2745464 93.184306,5.9509098 92.56231,5.6790917 92.029487,5.452728 90.732765,4.9027281 89.727221,4.5370007 89.102403,4.3240916 88.504222,4.1195461 88.381495,4.0913643 88.374223,4.0895459 A 0.84259082,0.84318394 0 0 0 88.14695,4.0622729 Z M 51.11939,5.0406371 c 0.594545,0.018182 1.153326,0.3563636 1.31378,1.0129092 0.195455,0.8009092 -0.34909,1.4824549 -1.086453,1.654273 L 49.93012,8.0460012 49.291938,5.4333643 50.706391,5.0870007 c 0.135454,-0.027272 0.275454,-0.054545 0.412726,-0.045455 z M 36.938588,7.108001 c -1.171999,0.045455 -2.371089,0.3772728 -3.507451,1.015182 -3.635997,2.041 -4.929086,6.270819 -2.958815,9.78591 1.953998,3.486002 6.219447,4.576547 9.855535,2.535727 3.64336,-2.04509 4.944449,-6.26 2.990542,-9.746454 -1.354635,-2.4164557 -3.80136,-3.6921831 -6.379811,-3.590365 z m -0.05455,3.460454 c 1.322908,-0.04546 2.582362,0.629092 3.279269,1.872365 1.009454,1.801 0.364546,3.986455 -1.49318,5.029365 -1.857906,1.042818 -4.058086,0.454545 -5.067721,-1.347092 -1.013636,-1.808364 -0.372727,-4.001183 1.485361,-5.044183 0.580909,-0.327273 1.194908,-0.491818 1.796271,-0.510909 z m -13.563527,7.194547 c -1.714817,0.09091 -3.456132,0.948091 -5.053549,2.576273 l -3.072015,3.120001 9.531654,9.433638 3.077814,-3.114365 c 3.206633,-3.244635 3.367997,-7.008273 0.41,-9.93591 -1.490907,-1.475728 -3.179088,-2.165636 -4.893813,-2.079637 z m 0.216363,3.596183 c 0.766363,0.02726 1.506544,0.369999 2.161362,1.017454 1.47918,1.463911 1.354544,3.390274 -0.31909,5.083547 l -0.597273,0.604545 -4.786323,-4.737273 0.573273,-0.58 c 0.951235,-0.962455 1.981598,-1.427818 2.967506,-1.387363 z m 73.648156,10.160548 -0.280001,1.046272 -1.123996,-0.697273 -0.56273,0.697273 -1.123905,0.348182 -1.405086,1.046455 -0.843638,-0.697273 0.280001,1.394909 h -1.405 l 0.279999,1.046364 -1.123816,-0.348182 -0.562727,1.395272 v 2.092455 h -0.561818 l -0.28,-1.395091 h -0.561818 l -2.248178,2.790001 -1.123908,-3.138637 -1.405452,2.092454 -0.842727,-0.34909 0.561817,1.395 -1.967179,-1.743729 -0.279999,2.790002 0.561817,1.395273 -4.215178,-1.743818 -0.279999,1.046 c -1.185635,-0.245455 -2.05818,-0.06363 -2.52918,1.395273 l -1.404907,-0.348182 -0.280909,-1.743819 -3.37236,-0.34909 -1.123817,2.441273 -1.124272,-0.697273 -0.279999,1.394908 -0.842727,-1.046363 -1.685907,-0.697273 0.28,1.743729 -0.28,1.743726 -0.843635,0.697273 1.124271,0.697272 v 0.348183 l -0.843636,-0.348183 1.96718,2.092729 v 0.348181 l -3.090996,-1.743727 -0.28091,1.046363 -2.529178,-1.743819 0.280908,2.092638 -1.124089,-0.348182 -0.280909,2.092728 -1.966908,-0.697273 v 1.743818 l -2.810178,-0.697273 0.842727,2.441182 c -1.123545,0.202729 -1.653726,0.731818 -1.967362,2.092728 l 2.24827,0.697272 c -0.476363,0.875455 -1.79118,2.605092 -0.561818,2.789911 v 0.34909 l -0.561817,1.046364 -2.529143,-0.697273 0.561817,-2.092273 -2.24805,0.697273 -0.561818,4.53391 h -2.529634 l -1.967179,2.441545 0.562726,3.487455 h -1.124181 l 0.843636,1.743819 -2.81036,0.697272 v 0.349092 l 1.967179,3.138818 0.843636,0.697273 2.529269,-0.697273 -2.810542,1.743729 0.280909,1.046454 -2.52927,1.046363 1.124089,1.046274 -0.561817,1.046272 0.842727,2.092272 -0.336364,0.627274 c 0.02727,0.165454 -0.249091,0.500909 -0.200909,0.828181 l -0.01818,0.288183 v 1.045909 l -1.96718,1.395273 v 0.697272 h 1.68618 l 0.329999,2.049001 1.918544,-0.304545 v 1.395091 l 0.561818,-0.348182 v 2.09273 h 1.96718 l 1.123999,-0.697279 -0.28,1.394915 2.529269,1.04627 -0.280908,1.046088 h 0.561816 l -0.279999,1.046279 0.842726,-0.348187 -0.561817,2.441186 2.80996,-1.743641 0.561818,0.697279 -0.842726,1.395089 0.280908,1.743816 c 1.045727,-0.37545 5.332359,-3.816185 5.620267,-1.046272 l 1.124272,-0.69727 0.842726,2.441362 1.404999,-1.39491 0.843635,1.74372 0.842726,-0.34817 -0.561817,1.04637 3.372178,-0.69728 1.96718,-2.092641 -0.562727,1.743821 1.405272,-1.04637 -0.28,0.69728 0.842727,-0.34819 -0.28,1.39492 1.405089,-0.34819 -0.561818,2.09264 1.967271,-1.04636 c 0.166364,1.20681 1.383181,0.0636 1.967089,-0.34908 l -0.28,2.09272 1.686089,-2.44156 h 0.28 v 1.39511 l 1.12409,-1.39511 h 0.28 l 0.842726,1.04629 -0.279999,-2.44119 1.68627,-1.395274 h 0.561818 l 0.842727,1.395274 0.279999,-1.046273 c 5.690447,4.649173 6.995628,19.209913 4.736085,24.516723 -2.259543,5.30692 -7.699172,6.25438 -11.551533,7.32336 6.424448,-0.89818 12.07126,-2.74789 16.537069,-4.64299 6.86454,-2.91309 10.959541,-5.95201 10.959541,-5.95201 0,0 -2.04373,-1.5279 -2.22127,-3.95118 -0.17727,-2.42344 -0.18454,-6.54018 1.36199,-11.01553 1.05619,-3.0561 3.06827,-3.81592 4.627,-5.92965 h 0.28 c 2.56173,1.96591 6.49836,-4.088726 8.14954,-0.348183 l 0.84272,-0.348176 v 0.697269 l 1.12427,0.34819 1.12392,-1.046366 v 1.395276 h 0.28 l 0.56181,-1.046367 0.28,1.743907 h 0.28 l 0.72909,-0.38636 0.67637,-1.706548 0.56727,1.748908 1.03136,-0.75455 c 0.0727,-1.100088 -0.0454,-1.79091 0.87909,-1.931813 l 0.28636,-0.06364 c 1.442,-2.845541 3.86454,-6.891269 5.97882,-14.335817 1.49563,-5.267 2.25636,-10.077637 2.4699,-14.912547 l -0.53636,-1.176728 c -0.28819,-1.664181 -0.0636,5.547274 -1.12163,5.613546 l 0.27999,-1.394908 -1.405,0.348181 0.9241,-1.504364 -1.66346,0.736365 -1.22781,1.813908 c 1.95999,-0.690909 -0.52728,1.871728 3.62272,3.86882 -1.02455,1.996364 -1.93645,5.199182 -1.93645,5.199182 l -0.28001,-1.046182 -0.28,-2.441547 -1.68627,1.046275 0.56182,-1.394819 -2.81017,-0.697274 -0.84273,0.348182 1.12399,-1.743818 -1.12399,0.348181 1.12399,-1.395272 2.52918,-4.533728 v -0.348181 l -1.1239,-1.395001 0.84272,-1.046364 -1.68645,0.348182 3.09172,-1.394818 v -1.395179 l 1.96682,0.349091 0.28,-1.743819 0.28,-1.395182 h -1.124 l 0.56182,-1.395092 -2.52918,-0.348181 v -0.348182 l 1.40518,-0.349091 -0.84273,-2.441546 -1.40527,-0.348181 -1.405,0.348181 v -0.697273 l 1.686,-1.046363 V 56.28183 h -1.12399 v -3.48782 l -0.84364,1.046364 0.56272,-2.092545 -0.84363,-0.697273 -1.12409,0.697273 -0.28,-1.046364 -1.12418,0.697272 -0.28091,-1.046363 -1.12381,1.743727 -0.84274,-0.348182 -2.81017,0.697274 0.84272,-2.790092 -1.4049,0.349092 c 0.60181,-0.946546 2.30172,-3.52282 1.1239,-3.836638 v -0.348181 l 0.84274,-0.348183 -0.84274,-0.697272 v -0.349091 l 1.12391,-0.348182 v -0.349091 l -1.12391,-0.697273 -1.96726,0.697273 0.56181,-1.046273 -2.248,0.348181 v -0.348181 l 1.12391,-0.349092 0.56182,-1.046272 v -0.348181 l -0.56182,-0.697274 0.84273,-0.349091 V 39.54319 l -1.68591,0.348182 0.56182,-1.395272 -0.84272,0.697272 h -0.28001 l -0.84363,-0.348182 -0.56182,-0.348182 v -2.092546 h -0.28 l -0.56181,1.395092 h -0.28 l -0.56274,-1.395092 h -0.28 l -0.28,1.395092 -1.96736,0.697273 0.28091,-1.39491 -1.68618,1.046091 v -1.046091 l -1.1239,0.348182 -0.56273,-2.092728 h -0.28 l -0.56182,1.046364 -0.61545,-1.09709 -0.22728,1.794908 -0.56181,-0.698182 h -0.28 v 1.395183 l -2.89927,-1.418456 1.21309,-2.417909 -1.967272,1.046273 0.279992,-2.092726 -1.404904,0.348182 z M 8.9107995,32.545369 8.081255,34.017913 16.8492,46.125825 l 1.912906,-3.394637 -1.027562,-1.363727 2.460397,-4.366547 1.693753,0.18091 1.917089,-3.402001 z m 5.0163675,3.796 3.443295,0.366363 -1.352997,2.400909 z m 82.976864,0.409091 1.686086,0.697273 v 2.441545 l -0.842722,-0.348182 v 1.394909 l -1.12418,1.744092 -1.405086,-2.092637 -1.686187,0.348181 -0.561814,-2.790089 c 1.770634,0.173635 2.525905,-0.05454 3.934178,-1.394819 z m 7.025269,3.487636 h 2.8e-4 l 0.84272,1.395273 1.96708,-0.348181 0.28,1.395091 2.24819,-0.697273 0.45455,2.432818 1.23135,-1.037545 0.19546,1.269636 2.45627,1.112456 c 1.15164,-0.795456 -0.23273,1.189636 1.00182,1.803091 v 0.697273 l -1.12427,0.348182 0.28,1.046362 -1.967,1.744002 -1.142,-0.398182 -1.40527,1.046362 0.0182,1.443456 -0.84364,-0.348182 c -0.41636,1.712547 -1.76364,2.135273 -3.09118,2.441182 v 2.092545 l -1.12418,0.349091 c -0.84,-0.980635 -1.42109,-1.009999 -2.52891,-0.697272 l 0.83273,1.425364 c -1.10809,0.351818 -3.51745,3.370181 -3.923995,1.016182 L 97.463143,60.4671 c -1.610639,-1.794365 -2.736183,-0.129091 -3.934087,1.395091 v -2.441364 l -1.405279,1.046273 0.280917,-1.046273 -1.124185,0.348181 0.562727,-2.092727 -1.124272,0.348182 0.561817,-1.395181 c -0.761817,0.200907 -0.95418,0.266363 -1.12427,-0.697274 l -2.81018,2.441091 -0.279999,-1.743817 h -0.280909 l -0.842726,1.395181 -0.561818,-1.395181 h -0.28 l -0.28,1.046453 h -2.24836 l -0.561817,-2.092818 1.405088,-0.348181 -0.842725,-0.697274 0.842725,-1.394908 -0.561817,-0.697273 -3.653269,-0.697273 1.124272,-1.046273 0.842727,-1.394909 -1.124309,-0.349092 0.280909,-1.046364 h -1.12409 l 0.842726,-2.092545 -0.842726,0.697272 v -0.697272 l -0.842706,0.697272 -0.280909,-1.744 -0.842727,-1.39491 c 1.094908,-0.209091 1.686635,-0.204545 2.248271,1.046274 l 2.248179,0.348182 v -1.394819 l 0.842727,1.046365 h 1.124179 l 0.28,-1.046365 1.124453,0.697273 h 0.28 l 1.124272,-2.092545 4.215087,0.348181 -1.96709,2.441182 1.686453,0.697273 -0.562727,2.79 0.842727,0.697273 h 0.280908 c 0.460909,-0.838181 1.147816,-1.800455 1.404997,-0.348181 h 0.280001 v 0.348181 l 5.058724,-1.743818 v 2.790091 h 1.123904 0.280908 l 0.280001,-1.395182 h 0.280001 l -0.561815,2.441546 0.842722,0.348182 -0.842722,0.697273 0.842722,1.743728 -1.405087,1.046362 1.124088,0.348183 v 0.348182 l -0.842722,1.046546 h 1.123996 l -0.280001,1.046182 1.405103,-1.395182 h 1.40553 v -1.743909 h 1.40501 v -1.394819 h -2.81054 l 0.27999,-1.046364 3.09182,-1.046274 -1.96737,-1.743726 1.68564,0.348181 -1.124,-1.046364 c 0.25637,-2.126545 -1.03591,-1.392363 -2.24809,-1.394909 l 0.56182,-1.395091 -1.12409,0.348182 -2.248182,-0.697273 c 0.729091,-2.153001 2.781092,-2.943 4.496732,-2.092728 l 1.12372,-1.39509 z m -11.889081,2.072909 0.929542,1.363819 1.424638,-0.831818 -0.715455,1.487455 1.432549,0.81909 -1.645098,0.123637 0.01822,1.650728 -0.929451,-1.363909 -1.42482,0.831818 0.715455,-1.487545 -1.432272,-0.819093 1.645361,-0.123636 z M 3.8739413,43.439006 1.5217984,51.816644 14.435739,55.447371 16.787882,47.070098 13.575631,46.166461 12.175596,51.152826 10.32478,50.632825 11.477479,46.52828 8.6173543,45.724644 7.4649192,49.829007 5.6623485,49.321734 7.0623288,44.335188 Z m 71.3197507,0.01819 0.482726,1.578454 1.607635,-0.369999 -1.124907,1.207728 1.124907,1.207635 -1.607635,-0.369999 -0.482726,1.578545 -0.482727,-1.578545 -1.607271,0.369999 1.124545,-1.207635 -1.124545,-1.207728 1.607271,0.369999 z m -5.548812,3.07091 c 1.17809,1.259454 1.842361,1.933817 3.37236,1.394908 l 0.28,2.092637 1.966997,0.348181 0.28,-1.046271 h 0.279999 l 0.28091,2.092727 h 0.28 l 0.279999,-1.395273 h 0.28 l 0.279999,1.046362 1.123999,-0.697272 -0.561817,3.138728 2.81027,-0.348181 -0.28,1.743636 0.842726,0.349091 -1.966907,2.092364 V 56.64247 l -1.40518,0.348182 v 1.395001 L 76.945508,57.68838 h -0.279999 l -1.405272,0.34909 0.28,1.394819 -1.404908,0.348182 h -0.28 l -0.842725,-0.697274 c -0.248182,1.40491 -0.977,0.650001 -1.68618,0 l 0.561817,3.138911 h -1.123999 c -1.153998,-0.532731 -0.971453,0.915632 -1.686271,2.790177 l -3.091088,-1.394908 0.561818,3.487454 -3.934178,1.046364 1.123999,0.697274 -0.845454,0.872727 c 0,0 0.563636,-0.174545 0.563636,0.522727 0,0.697272 0.449091,2.102727 1.405272,2.790001 v -2.441546 l 2.529269,2.441546 0.28,-1.395182 c 0.779999,0.255455 1.547998,1.326909 1.685907,0 l 2.81018,1.743999 0.279999,-1.046272 2.52918,2.092364 -0.842727,0.348181 -0.279999,1.743638 1.404997,0.697272 c 1.197727,-0.701818 2.234817,-2.004819 3.372179,-0.697272 l -2.810179,3.138909 -1.404998,0.697273 v 0.349091 l 2.529179,0.348182 -0.280909,1.743818 c 0.841818,0.704545 0.633636,1.337727 0.280909,2.441183 l 2.810179,-0.349092 v 1.394819 l -1.68618,-0.697273 v 1.743637 L 76.5436,86.755739 c 0.160909,0.835455 0.254545,0.744546 -0.441818,0.923728 l 1.365544,1.537455 2.006725,0.205455 v 3.836454 h -1.96718 l 0.28,2.092633 -1.685998,-0.698176 c -0.285454,1.655722 -0.936454,2.045272 -2.248088,1.743906 v 1.394998 l -4.777541,-2.092634 0.842726,0.69727 -0.842726,2.441185 -0.842727,-1.395272 0.28,1.046363 -1.123999,0.348186 -1.40518,-2.441276 -4.215359,2.790186 -1.40509,-2.790186 -1.685816,0.349093 v -0.697279 h -2.52927 l 0.28,-1.39518 -2.529271,1.04627 C 53.203988,93.804559 52.741534,92.85138 51.088481,92.211563 l 0.28,-1.395277 -1.686053,-0.349091 c -1.131179,1.259821 -2.687088,0.510909 -3.372269,-1.046274 l 1.405362,-0.697272 v -1.747182 h -0.843635 c 0.06363,-1.903091 -1.060362,-6.864638 0.28,-8.021274 -0.482726,-2.652 2.481634,-2.764274 3.65354,-4.534182 l 2.247598,0.348182 -0.561817,1.743727 v 0.348183 l 0.561817,1.743908 1.405271,0.697272 0.280909,-1.046271 2.24818,3.138908 -0.561818,-1.743728 1.966998,-0.697273 V 78.60483 c -1.57618,-0.688182 -0.727271,-1.967819 0.562727,-2.092547 l -0.280909,-2.790181 c -0.798181,0.547272 -1.455817,0.979636 -1.68618,-0.348182 l -0.842726,-0.697272 -1.405181,0.348181 -0.280908,-1.395092 c -2.020908,1.111728 -5.06323,4.135911 -7.02541,2.441455 v -0.34909 l 0.843635,-1.39491 h -0.560908 l 0.842726,-2.092545 -0.842726,-0.348183 v -0.34909 l 3.372268,-1.395001 -0.28,-1.046455 1.966689,0.697273 c 0,-0.985727 0.320909,-0.972999 1.124272,-1.046091 l -0.28,-1.744 1.123998,0.349091 1.123999,-1.743819 1.96718,2.092728 0.28,-2.092728 1.40518,-0.348181 0.28,1.046182 h 1.685908 l 0.562726,-3.139001 -0.843636,0.697272 V 60.469555 H 60.08129 c -0.302728,1.28609 -0.985272,1.267908 -1.967089,1.046272 l -0.28,1.046364 h -0.280909 l -0.28,-2.441546 -1.123907,0.348182 c -0.790909,-2.478273 0.668181,-2.260909 2.247815,-2.79 l -0.561817,-1.046364 4.496359,-5.231365 0.842726,0.348182 c 1.062999,-2.009364 3.626815,0.899092 5.339359,0.697272 v -0.348181 c -1.440908,-0.532728 -2.078635,-1.277636 -2.248271,-3.139 h 1.405271 c 0.312727,-1.155 0.717272,-1.396455 1.685998,-1.39491 z m 10.678806,1.046181 0.28,0.349091 z m -51.691817,0.34636 c -0.08182,0 -0.158181,-1.82e-4 -0.237272,0.01818 -0.08182,0.01818 -0.265455,0.01818 -0.31,0.1 -0.03636,0.08182 0.09091,0.117274 0.135454,0.133637 0.157273,0.06363 0.325454,0.0909 0.488182,0.126363 0.01818,0 0.02727,0.0041 0.03636,0.0041 v 1.82e-4 2.72e-4 h 2.73e-4 v 1.82e-4 l 3.64e-4,2.73e-4 v 2.73e-4 2.73e-4 l -3.64e-4,3.64e-4 -2.73e-4,2.72e-4 c -0.0052,0 -0.01818,0.004 -0.03636,0.01819 l -0.322728,0.01819 c 0.08182,0.290908 0.338183,0.332726 0.601818,0.390908 l 1.35309,0.30091 c 0.01818,0 0.03636,0.0039 0.03636,0.01818 l 3.64e-4,1.81e-4 v 2.73e-4 h 1.82e-4 v 3.64e-4 2.73e-4 l -1.82e-4,3.64e-4 -3.64e-4,1.82e-4 h -2.72e-4 -0.03636 c -0.378182,-0.03636 -0.811817,-0.228174 -1.175362,-0.13272 0.07273,0.226364 0.251817,0.272728 0.459999,0.320001 0.299091,0.07273 0.895453,0.139091 1.134362,0.164545 0.02727,0.0041 0.04546,0.01818 0.04546,0.01818 1.82e-4,1.83e-4 0,5.47e-4 0,10e-4 l 2.72e-4,2.73e-4 v 2.73e-4 l 3.64e-4,2.72e-4 v 3.64e-4 2.73e-4 2.72e-4 l -3.64e-4,3.64e-4 v 2.72e-4 l -2.72e-4,2.73e-4 c -0.0052,0.004 -0.01818,0.01818 -0.04546,0.01818 -0.306363,0.01818 -0.801817,-0.03636 -0.989726,0.142728 0.415455,0.264545 0.786363,0.126363 1.207726,0.160909 0.03636,0 0.05455,0.01818 0.05455,0.01818 v 3.64e-4 2.72e-4 1.82e-4 4.55e-4 2.73e-4 1.81e-4 l -2.73e-4,3.64e-4 c 0,0.004 -0.01818,0.01818 -0.05455,0.01818 l -0.529999,0.09091 c 0.252727,0.123636 0.405454,0.311817 0.833636,0.325454 -0.270001,0.222727 0.02727,0.414546 0.272726,0.376364 l 0.006,0.01818 c -0.158181,0.285455 0.01819,0.458181 0.268182,0.574546 -0.14,0.249091 0.142727,0.432727 0.368181,0.378181 l 0.006,0.05455 c -0.201819,0.310909 0.01818,0.692727 0.387272,0.65909 l 0.006,0.01819 c -0.123636,0.254544 -0.03636,0.42 0.09091,0.569091 0.07273,0.0909 -0.02727,0.241818 0.202726,0.358181 l 0.006,0.01818 c -0.493636,0.298183 -0.79909,0.775455 -1.18109,1.174092 -0.170909,0.123636 -0.426363,0.08182 -0.601817,0.214546 -0.171819,0.126363 -0.135455,0.304546 0.01818,0.441818 -0.07273,0.135454 0.08182,0.269091 0.177272,0.284545 0,-0.004 -9.1e-5,-0.004 0,-0.01818 l 1.82e-4,-2.72e-4 c 0.0051,0.01819 0.02727,0.251818 0.229091,0.263638 0.104545,0.151816 0.273636,0.191816 0.427273,0.07272 0.279999,-0.223636 0.391817,-0.545453 0.716362,-0.744545 0.462727,-0.283637 1.031908,-0.338182 1.503453,-0.616364 0,-0.004 0.005,-0.01819 0.005,-0.01819 l 2.73e-4,-2.73e-4 v -2.73e-4 l 3.64e-4,-3.64e-4 v -2.74e-4 h 2.73e-4 l 3.63e-4,-2.72e-4 2.73e-4,2.72e-4 h 2.73e-4 2.73e-4 l 3.63e-4,2.74e-4 c 0.02727,0.01818 0.04546,0.302728 0.213636,0.361818 0.07273,0.235454 0.204545,0.371819 0.449999,0.348182 0.07273,0.243637 0.199092,0.37 0.46091,0.320909 0.08182,0.216364 0.273635,0.38 0.503635,0.29 0.07273,0.152727 0.136364,0.3 0.272727,0.408182 0.09273,0.07273 0.227273,0.102727 0.306364,0.192727 0.145454,0.165455 0.308181,0.58091 0.545454,0.633637 0.14909,0.02726 0.201818,-0.156364 0.232726,-0.26091 0.02727,0.212728 0.01819,0.442728 0.09818,0.646364 0.09091,0.226364 0.175455,-0.01818 0.204546,-0.13 0,-0.05454 0.02727,-0.115454 0.02727,-0.17 0.04546,0.338182 0.02727,0.818182 0.218181,1.11191 0.06363,0.101817 0.158182,0.07274 0.190909,-0.04546 0.03636,-0.110908 0.02727,-0.251819 0.006,-0.377273 0.03636,0.238182 0.134545,0.775456 0.325454,1.123364 0.01818,0.04546 0.06363,0.02726 0.04546,-0.01819 l 0.06363,-0.361819 c 0.03636,0.232728 0.02727,0.479092 0.107273,0.704546 0.05454,0.160001 0.191817,-0.06363 0.191817,-0.06363 0.118183,0.368182 0.06363,0.82909 0.440909,1.046726 0.263636,-0.340908 0.214545,-0.988909 0.151818,-1.397908 -0.174545,-0.928092 -0.572726,-1.845091 -0.91209,-2.723364 -0.183635,-0.477273 -0.333636,-0.994092 -0.714545,-1.356637 -0.532726,-0.507273 -1.456543,-0.58 -1.770452,-1.322545 -0.110909,-0.256365 0.08182,-0.393637 0.239091,-0.566365 0.328181,-0.350909 0.556363,-0.650908 1.049726,-0.723636 -0.136364,-0.127274 -0.237273,-0.241819 -0.42,-0.175454 -0.604544,-0.903638 -1.543998,0.341817 -2.306998,-0.06363 -0.869089,-0.461818 -0.642726,-1.695 -1.490816,-2.218728 -0.516363,-0.319091 -1.115271,-0.539999 -1.674543,-0.766363 -0.63,-0.256364 -1.275272,-0.542728 -1.939908,-0.693637 -0.230909,-0.05454 -0.45909,-0.103637 -0.692727,-0.110909 z m 93.812051,4.392819 0.15909,2.164273 2.16773,-0.01818 -1.79355,1.219272 1.08936,1.87591 -1.95182,-0.944637 -1.0789,1.881819 -0.15728,-2.164092 -2.16827,0.0041 1.79364,-1.219001 -1.08873,-1.875908 1.95145,0.945 z m -6.993,1.887545 h 0.56273 l 0.28,3.487638 -0.28,1.394908 1.96691,-1.743909 h 0.27999 l 1.9671,1.395273 -0.28,1.046273 0.56181,0.697273 2.52928,-0.348182 0.46999,1.396637 1.91354,0.814545 c -1.05018,-0.226363 -1.62263,1.084819 -3.75353,-0.195455 -0.64091,0.517273 -0.85182,0.480909 -1.10246,1.391638 l 3.59773,1.475908 c -1.25473,3.836637 -5.12799,3.525909 -2.81027,8.021638 l -0.84364,0.348182 0.84364,0.349091 -1.68619,1.743636 v 0.348182 l 0.84274,1.046273 c -1.42682,0.329091 -3.284,0.724546 -3.09119,-1.743636 l -2.52918,-0.348182 -1.40499,-3.487546 -1.96718,0.348182 -0.28,1.046364 h -0.56182 l -0.84273,-1.394819 -0.2809,2.092545 -2.52901,0.697274 v -2.78991 l 0.84274,-0.348181 v -1.046369 l -1.12437,-0.697273 1.40537,-1.743727 -0.56183,-1.046364 0.84273,-1.395182 h -1.40499 l 0.56181,-0.697273 v -0.348185 l -1.68609,0.348181 1.40509,-1.743819 -0.84363,-1.046272 -0.56182,-1.395273 v -0.348182 l 1.12409,-1.046182 1.40499,0.697273 c 0.35546,-1.324545 0.93465,-1.387818 1.96719,-1.046272 l 0.28,-1.743727 h 0.56181 l 0.28001,3.138818 1.40527,-0.697274 z M 0.18966343,57.442826 0.17148163,58.874554 7.9832097,64.740828 0.01909089,70.398374 0,71.830647 l 13.537459,0.179999 0.04727,-3.564 -5.3170406,-0.07273 5.1403036,-3.554546 2.45e-4,-0.01818 -5.0441488,-3.681183 5.3170588,0.07273 0.04727,-3.563545 z m 102.79017657,0.632728 0.81728,1.054364 1.10827,-0.74091 -0.50545,1.234546 1.19527,0.590001 -1.32073,0.17909 0.0909,1.331091 -0.81727,-1.054182 -1.10864,0.74091 0.50545,-1.234818 -1.19508,-0.590001 1.32063,-0.179999 z m -14.225436,1.007363 1.686089,3.13891 1.966904,-0.697273 -0.842723,1.743911 3.934088,-1.395092 c 1.197995,1.999455 2.181272,1.323454 3.934544,1.395092 0.693634,-1.787092 1.259634,-1.776638 2.769904,-1.45091 l 0.60182,1.45091 2.52927,-1.395092 -1.12427,1.395092 -0.28,1.743727 0.56273,1.395181 h 1.68599 l -0.28,1.046364 0.84273,0.348181 v 0.349092 c -1.03036,0.803637 -1.44845,1.523 -0.28,2.441182 l -0.56181,0.697273 v 0.348181 l 0.56181,0.697273 c -1.81755,0.600001 -4.65645,4.162455 -4.77699,-0.348183 h -3.934458 l -1.686003,-3.836454 -3.934444,0.697272 -1.124092,3.48782 -1.68609,-0.697273 -0.28,1.395182 -1.686361,0.348182 0.562726,3.836455 -1.124362,-0.697272 c 0.432727,3.626454 -2.41218,2.827726 -3.372179,0.349091 h -0.279998 l 1.124179,3.139001 -1.405179,-0.348183 1.967361,1.395181 -0.561818,1.046 2.529089,1.046365 -1.404908,0.697271 v 0.348183 h 1.685907 v 1.395272 l -3.37236,2.092637 h -0.28 l 0.561818,-1.74409 -1.124089,-0.697273 1.405271,-0.349091 -4.215449,-1.395272 c 0.41,-1.533001 0.369999,-2.371637 -0.842727,-3.13891 l 1.404908,-2.790001 h -0.842727 l -0.842726,-3.487637 -1.686362,0.348182 v -1.394909 l 2.810179,-3.139091 0.842726,0.34909 -0.279999,-2.092636 -3.37227,1.046273 C 76.548236,67.831827 74.088238,67.26401 76.116055,65.708645 l -0.843636,-1.74409 2.529179,-1.74391 1.124272,1.395364 v -2.790183 l 0.28,-0.348181 1.966816,-0.697273 -0.561818,1.743727 0.843636,1.046275 0.28,-1.046275 h 1.123908 l 1.967269,1.395273 -0.176364,1.664728 0.833636,0.211819 -0.09455,0.564545 h 0.561818 l 0.09546,-0.564545 0.730908,0.169999 0.481818,0.201818 -0.184546,-3.294726 v -0.348182 l 0.843636,0.348182 0.279999,-1.744092 -0.843635,0.697273 z m 30.912056,0.697273 -0.28,0.697274 z m -48.608764,3.95591 1.100545,2.37691 2.446633,-0.931274 -1.507089,2.142364 2.029543,1.654819 -2.607542,-0.234546 -0.417273,2.586092 -1.100544,-2.377364 -2.446997,0.931727 1.507089,-2.142365 -2.029271,-1.654453 2.607361,0.234544 z m 23.31707,6.507091 0.561814,1.046365 0.843638,-0.348182 v 1.743636 l 0.561815,1.395273 h 2.247818 l 1.124363,-1.395273 -0.280001,1.743729 1.404997,-0.697274 -0.28,1.395183 1.68609,0.697272 -1.68609,2.092818 -0.28,2.092456 1.96709,-1.395092 h 0.28 l 1.96718,0.348182 0.56181,1.046272 v 0.348183 l -1.40508,1.046273 v 0.349091 l 0.56181,0.348182 -3.93408,1.744 C 97.980666,82.33974 98.007762,81.734739 95.219484,82.449103 l -1.404903,-2.092727 0.280001,2.441545 -1.686361,-0.348182 0.280001,2.092545 -0.842731,1.046455 -3.653177,-0.348182 0.561818,-2.790091 c -0.716364,-0.423637 -1.40509,-1.095455 -0.28,-1.394909 v -1.395272 l -0.842727,-0.349092 1.123999,-1.394727 0.28,1.046272 0.279999,-1.046272 1.124181,0.348181 -1.124181,-3.836455 0.561818,-0.697273 1.68618,1.046274 c 0.318178,-1.497364 0.933178,-2.603637 2.248268,-2.441183 z m -39.029872,3.481183 0.434546,1.412 1.438271,-0.333636 -1.004908,1.082183 1.00809,1.079091 -1.439181,-0.330002 -0.429999,1.413728 -0.434545,-1.412091 -1.437999,0.333638 1.004818,-1.082365 -1.008363,-1.079454 1.43918,0.33 z m -41.242436,0.126364 -3.235151,0.818182 1.267944,5.021637 -1.863907,0.470909 L 9.2277905,76.02783 6.347675,76.755101 7.3911648,80.889011 5.575803,81.348103 4.3081772,76.326102 1.0970625,77.137921 3.2271692,85.575104 16.232556,82.287193 Z m 92.990022,0.430909 c 0.74272,-0.02727 1.42172,0.296364 1.89509,1.193091 l 0.84364,-0.348182 0.28,1.046365 2.2479,-1.046365 0.90818,0.676364 0.93064,0.26091 -1.27682,2.550818 1.967,1.395272 -1.40518,-0.34909 -1.96709,1.743817 0.84273,3.836456 1.96717,-0.348182 -0.56181,1.046 0.84272,0.349092 0.28,1.743636 c -1.03018,0.198182 -1.61154,0.27091 -1.96691,-1.046274 l -1.96718,-0.34909 c -1.17245,1.598546 -3.7579,-1.144545 -5.05835,-1.743727 l 0.28,-1.395182 h -1.124 l 1.68581,-4.533819 h -1.1239 V 76.87083 l -2.81018,0.697273 c 0.71727,-1.392366 2.65418,-3.214547 4.28718,-3.285729 z m -7.940264,0.147273 0.279991,0.348182 z m 17.197524,1.642999 0.0182,1.270728 1.26827,0.07273 -1.09254,0.648182 0.56999,1.136454 -1.108,-0.622727 -0.69817,1.062091 -0.0182,-1.271182 -1.26827,-0.07274 1.09263,-0.64818 -0.57091,-1.136456 1.108,0.622728 z m 5.0029,1.844911 -0.28091,1.394909 2.81019,1.046272 v 0.697274 l -0.84274,1.046 h 1.12437 l -0.56272,1.046362 3.37236,-0.348181 v 0.348181 c -0.88091,0.950728 -1.451,1.962638 -0.56182,3.13891 l -1.12418,0.697273 0.56181,3.139001 -2.52936,1.395182 c -0.80454,-0.877272 -1.25245,-0.763636 -2.24809,-0.348182 l -0.27999,-2.092727 -1.40491,0.34909 -0.84273,-1.046272 c -0.54727,5.227544 -1.88599,0.994635 -2.81054,-1.395274 h 1.12417 v -0.34909 l -1.12417,-0.348181 0.2809,-1.046365 -2.24826,-1.046273 v -0.348181 l 3.65318,-0.697274 -0.56182,-2.092454 h 1.68618 c -0.21637,-2.428 1.04863,-3.086092 2.81027,-3.138911 z m -24.335151,5.429274 0.679092,2.274999 2.314719,-0.517272 -1.628998,1.724817 1.604816,1.747729 -2.307267,-0.549091 -0.709998,2.264454 -0.678185,-2.274091 -2.314995,0.517272 1.629448,-1.725182 -1.605355,-1.747272 2.30745,0.549091 z m -82.174223,1.741271 c -0.572999,-0.01819 -1.15819,0.10182 -1.732653,0.38091 -1.781534,0.865455 -2.327197,2.676819 -2.204706,4.950001 0.08636,1.568998 0.320817,2.510363 -0.233091,2.779458 C 10.261089,93.397739 9.6951173,93.089559 9.3752806,92.430467 9.0954629,91.854101 8.9216449,90.790376 9.3835206,90.12174 L 6.7042837,89.137195 c -0.9611536,1.050273 -1.1316443,2.910545 -0.2373634,4.753185 1.1122443,2.292086 3.5650327,3.553086 5.6534757,2.538179 1.818916,-0.883639 2.185852,-2.682002 2.103062,-4.530274 -0.05091,-1.438272 -0.103455,-2.939545 0.517818,-3.241455 0.49409,-0.239999 1.064298,0.307273 1.39508,0.988183 0.490727,1.011182 0.496182,2.165545 0,3.027727 l 2.842723,1.016088 c 1.03799,-1.254176 1.037599,-3.485179 0.07455,-5.470179 h 3e-4 c -0.880548,-1.814454 -2.48979,-3.082183 -4.208762,-3.131546 z m 75.878136,1.199636 -0.562727,2.092729 2.810454,-0.697274 0.280001,2.092365 -0.280001,1.395092 0.280001,0.34909 2.529266,-0.697273 -0.843638,2.790187 c -1.500816,-1.164189 -2.377539,-0.223639 -2.810173,-3.138732 -1.333547,0.857273 -2.452,0.734545 -2.529182,-1.395182 l -1.404908,0.697273 c 0.437273,-1.700455 1.107727,-2.981638 2.52918,-3.487546 z m -4.683904,2.926365 0.143636,3.205187 3.204996,0.08177 -2.701633,1.727185 1.531453,2.818088 -2.845542,-1.477814 -1.673362,2.736909 -0.144546,-3.205184 -3.204904,-0.08177 2.701906,-1.727176 -1.531817,-2.818549 2.84536,1.477909 z m 31.345612,2.520179 1.87208,1.815461 1.94073,-1.741279 -0.63455,2.530185 2.47691,0.811818 -2.50654,0.714549 0.53636,2.552455 -1.872,-1.815187 -1.9409,1.741004 0.63545,-2.529452 -2.47727,-0.811827 2.50691,-0.71454 z m -17.949987,0.482734 0.561815,1.394905 h 0.561822 l 0.28,-1.046179 h 0.28 v 1.743999 l 1.68627,-1.743999 v 2.44145 l 2.81018,-1.395271 -0.84273,1.046362 v 0.349093 h 3.37218 v 0.697278 c -3.97845,0.729092 -10.270086,4.134452 -10.678719,9.765363 -2.111997,-1.99554 0.753632,-10.973552 1.967177,-13.253001 z m -9.273902,6.277632 h 0.280908 l 0.28,5.929099 h -0.28 l -2.529088,-4.882737 h 1.966907 z m -77.974625,2.822089 a 0.84259082,0.84318394 0 0 0 -0.70918,1.254 c 0.0051,0.0182 0.06,0.12091 0.392999,0.65728 0.348273,0.5609 0.931208,1.4589 1.759116,2.59917 0.340091,0.4691 0.745909,1.01292 1.217145,1.61774 2.418741,3.10455 5.883565,6.92164 10.443742,10.58181 3.65536,2.93383 7.993174,5.81865 13.263168,8.23719 1.407635,0.64636 3.079906,1.34627 4.989359,2.02991 4.257813,1.52464 8.981589,2.71164 14.158857,3.38272 5.141267,0.66637 9.488171,0.6591 12.232168,0.57819 -2.746361,-0.0181 -7.083265,-0.20455 -12.152896,-1.09872 -5.109813,-0.90091 -9.696043,-2.29464 -13.812584,-3.97555 -1.844453,-0.75364 -3.452179,-1.50527 -4.808268,-2.1841 -5.002904,-2.50445 -9.3299,-5.42945 -12.808896,-8.28027 -4.430086,-3.63036 -7.792374,-7.28182 -10.173715,-10.314 -0.460182,-0.58546 -0.85509,-1.11273 -1.184645,-1.56655 -0.801908,-1.10437 -1.36228,-1.96773 -1.690871,-2.49718 -0.314363,-0.50635 -0.356999,-0.59637 -0.353545,-0.59 a 0.84259082,0.84318394 0 0 0 -0.761999,-0.43091 z"
       inkscape:highlight-color="#ffffff"
       inkscape:export-filename="sem_icon.png"
       inkscape:export-xdpi="96"
       inkscape:export-ydpi="96" />
  </g>
</svg>
